Genre:Animation | Family | Fantasy
Language:English 
http://www.imdb.com/title/tt1482459/
Source:LUM1X/INSPiRAL NEW AUDIO Thanks!
Encoder:Tony

Format : AVI
Format/Info : Audio Video Interleave
File size : 874 MiB
Duration : 1h 18mn
Overall bit rate : 1 552 Kbps

Video
ID : 0
Format : MPEG-4 Visual
Format profile : Advanced Simple@L5
Format settings, BVOP : 1
Format settings, QPel : No
Format settings, GMC : No warppoints
Format settings, Matrix : Default (H.263)
Codec ID : XVID
Codec ID/Hint : XviD
Duration : 1h 18mn
Bit rate : 1 350 Kbps
Width : 640 pixels
Height : 304 pixels
Display aspect ratio : 2.2:1
Frame rate : 25.000 fps
Color space : YUV
Chroma subsampling : 4:2:0
Bit depth : 8 bits
Scan type : Progressive
Compression mode : Lossy
Bits/(Pixel*Frame) : 0.278
Stream size : 760 MiB (87%)
Writing library : XviD 1.2.1 (UTC 2008-12-04)

Audio
ID : 1
Format : AC-3
Format/Info : Audio Coding 3
Mode extension : CM (complete main)
Codec ID : 2000
Duration : 1h 18mn
Bit rate mode : Constant
Bit rate : 192 Kbps
Channel(s) : 2 channels
Channel positions : Front: L R
Sampling rate : 48.0 KHz
Bit depth : 16 bits
Compression mode : Lossy
Stream size : 108 MiB (12%)
Alignment : Aligned on interleaves
Interleave, duration : 40 ms (1.00 video frame)
Interleave, preload duration : 512 ms


Plot:
A 12-year-old boy searches for the one thing that will enable him to win the affection of the girl of his dreams. To find it he must discover the story of the Lorax, the grumpy yet charming creature who fights to protect his world.
 
http://img716.imageshack.us/img716/8375/vlcsnap2012031318h52m54.png 
http://img851.imageshack.us/img851/5692/vlcsnap2012031318h56m28.png 
http://img163.imageshack.us/img163/8666/vlcsnap2012031318h53m39.png 
http://img849.imageshack.us/img849/8963/vlcsnap2012031318h54m13.png